<svg width="80" height="25" viewBox="0 0 80 25" fill="none" xmlns="http://www.w3.org/2000/svg">
<g clip-path="url(#clip0)">
<path d="M37.0248 15.9834C39.8512 5.43686 39.6718 6.1974 39.6718 5.89555C39.6718 5.43969 39.4748 5.01313 39.1703 4.72709C38.4036 3.99643 37.1559 4.19355 36.6464 5.11039V2.20708C36.6464 1.20475 35.835 0.390686 34.83 0.390686C33.8271 0.390686 33.0136 1.20416 33.0136 2.20708V7.62064L29.9843 2.61089C29.6479 2.02789 29.0371 1.7022 28.4096 1.7022C27.0245 1.7022 26.1365 3.21074 26.8384 4.42729L29.501 8.86721H25.9497C24.9469 8.86721 24.1333 9.68074 24.1333 10.6836C24.1333 10.9054 24.1607 10.8853 24.1333 10.8853C23.6895 10.8853 23.3262 11.2486 23.3262 11.6929V18.9585C23.3262 22.0791 25.8564 24.6093 28.977 24.6093H30.9956C30.9956 24.5671 32.7665 24.7293 34.3154 23.1821C37.5302 19.966 37.0053 16.0487 37.0248 15.9834V15.9834ZM31.4336 17.2779C31.0871 18.4402 29.6548 18.8497 28.747 18.0552C27.6108 17.0606 26.959 15.6246 26.959 14.1148C26.959 13.5953 26.9878 13.1337 26.687 12.5001H30.1728L30.6196 12.9073C31.1609 13.4005 31.5004 14.1156 31.5014 14.9039C31.502 16.966 31.5246 16.9714 31.4336 17.2779Z" fill="#F9CFAC"/>
<path d="M36.6467 2.20715V12.6066C35.9062 11.153 35.478 10.1858 33.0139 6.11047V2.20715C33.0139 1.20422 33.8274 0.390739 34.8303 0.390739C35.8327 0.390739 36.6467 1.20217 36.6467 2.20715V2.20715Z" fill="#FFE4CC"/>
<path d="M34.8616 10.8214L33.7742 9.734C32.7117 8.67101 31.2991 8.08605 29.7967 8.08605H29.0325L26.8387 4.42736C26.1371 3.21139 27.0243 1.70226 28.41 1.70226C29.0374 1.70226 29.6483 2.02795 29.9847 2.61095C33.6229 8.6277 32.5361 6.79279 34.8616 10.8214Z" fill="#FFE4CC"/>
<path d="M37.031 16.1183C36.9754 15.0311 36.7643 14.3247 36.5774 13.6417L33.2219 10.2862C32.3133 9.37756 31.0813 8.86731 29.7967 8.86731C25.6043 8.86731 25.6444 8.80271 25.1336 9.06115C24.7223 9.26535 24.3838 9.64011 24.2273 10.107C25.89 10.1862 27.0689 11.2101 27.532 12.5001H30.1731C30.6515 12.9362 31.0009 13.2008 31.2713 13.8126C31.571 14.4909 31.5017 14.8727 31.5022 16.8048C31.5022 18.2278 29.8198 18.9939 28.7473 18.0553C27.875 17.2917 27.3007 16.2522 27.1023 15.3297C26.7748 13.957 27.2204 13.3652 26.552 12.2491C26.094 11.494 25.299 10.9767 24.3836 10.8966C24.3641 10.8966 24.4523 10.8999 24.1453 10.8854C24.1248 10.8854 24.1321 10.3292 24.1321 18.1529C24.1321 21.2735 26.6624 23.8038 29.783 23.8038H31.8015C31.8015 23.7718 33.3087 23.8948 34.7639 22.7003C34.7644 22.6998 34.7649 22.6998 34.7654 22.6988C36.3819 20.836 37.1585 18.4356 37.031 16.1183Z" fill="#FFE4CC"/>
<path d="M39.6721 5.89561C39.6721 6.19664 39.8193 5.55709 37.428 14.4801V4.40923C38.4825 3.96334 39.6721 4.73262 39.6721 5.89561V5.89561Z" fill="#FFE4CC"/>
<path d="M40.0624 5.89537C40.0624 4.36334 38.383 3.37492 37.0371 4.16911V2.2071C37.0371 1.61794 36.8077 1.0637 36.3907 0.646072C35.0118 -0.730729 32.6231 0.234404 32.6231 2.2071V6.21958L30.3205 2.41184C29.7188 1.37444 28.3762 0.991188 27.3076 1.60745C26.2192 2.23576 25.9033 3.6321 26.5034 4.62804L28.8113 8.47656H25.9497C24.7677 8.47656 23.8103 9.40121 23.7461 10.5589C23.2751 10.7203 22.9355 11.1677 22.9355 11.6929V18.9585C22.9355 22.2898 25.6457 25 28.977 25H30.9956C32.2009 25 33.5797 24.4692 34.5916 23.4583C34.8327 23.2173 35.0633 22.9608 35.2771 22.6961C35.4126 22.5282 35.3863 22.2823 35.2185 22.1468C35.0506 22.0112 34.8046 22.0375 34.6691 22.2053C32.795 24.527 31.2261 24.2187 28.977 24.2187C26.0766 24.2187 23.7168 21.859 23.7168 18.9585V11.6929C23.7168 11.463 23.9037 11.2759 24.1333 11.2759C24.169 11.2759 24.2001 11.2743 24.2459 11.2621C24.3285 11.293 25.6847 11.3135 26.3341 12.6673C26.6008 13.2301 26.5684 13.6498 26.5684 14.1146C26.5684 15.737 27.2688 17.2804 28.4898 18.3491C29.6089 19.3292 31.3791 18.8275 31.8079 17.3889C31.9211 17.0079 31.8927 16.936 31.8922 14.9032C31.891 14.0305 31.524 13.2022 30.8828 12.6186C30.4092 12.1868 30.3691 12.1138 30.1823 12.1099C30.1502 12.1092 29.748 12.1095 26.9217 12.1095C26.4032 11.2055 25.5018 10.6411 24.5336 10.5203C24.6148 9.806 25.2214 9.2579 25.9498 9.2579H29.7965C30.9859 9.2579 32.1043 9.72118 32.9455 10.5625L36.0581 13.675C36.3392 14.1617 36.277 14.0245 36.3385 14.249C36.8168 16.0084 36.7369 17.8202 36.1824 19.4531C36.1131 19.6574 36.2225 19.8792 36.4267 19.9485C36.631 20.018 36.8528 19.9085 36.9222 19.7042C37.3175 18.5398 37.4903 17.2965 37.4165 16.0308C40.2272 5.54381 40.0624 6.27129 40.0624 5.89537V5.89537ZM30.9136 13.9701C31.1753 14.5628 31.1109 14.8931 31.1114 16.8049C31.1114 17.8869 29.8283 18.4829 29.0044 17.7612C27.9528 16.8408 27.3496 15.5117 27.3496 14.1146C27.3496 13.6597 27.3665 13.3588 27.243 12.8907H30.0217C30.408 13.2429 30.6868 13.4571 30.9136 13.9701V13.9701ZM34.8301 0.781326C35.6126 0.781326 36.2559 1.41331 36.2559 2.2071V12.4554C35.3943 10.9636 35.3397 10.8687 35.3426 10.8739C35.3381 10.8657 35.4314 11.0274 33.4043 7.51587V2.2071C33.4043 1.42092 34.0439 0.781326 34.8301 0.781326V0.781326ZM29.7222 8.47656L27.1752 4.22921C26.6272 3.27531 27.3254 2.09265 28.4096 2.09265C28.8885 2.09265 29.3556 2.32727 29.6501 2.81286C33.2834 8.82138 32.1926 6.9794 34.5484 11.0605L33.4979 10.01C32.53 9.04208 31.2486 8.47656 29.7222 8.47656V8.47656ZM39.239 6.21304C36.8769 15.0261 37.1272 14.1726 37.0921 14.0433C37.0135 13.7564 37.0371 14.799 37.0371 5.21974C37.7896 4.08078 39.5993 4.86461 39.239 6.21304V6.21304Z" fill="black"/>
<path d="M36.1145 20.6649C35.924 20.5635 35.6875 20.6359 35.5863 20.8264C35.5592 20.8773 35.5312 20.9283 35.5027 20.9783C35.3542 21.2395 35.5449 21.562 35.8419 21.562C36.1026 21.562 36.1886 21.3576 36.2761 21.1931C36.3773 21.0027 36.305 20.7662 36.1145 20.6649V20.6649Z" fill="black"/>
</g>
<g clip-path="url(#clip1)">
<path d="M20.6412 3.32631C20.1772 5.05866 18.7992 10.2014 18.3023 12.0561C18.6888 12.4426 19.1569 12.8846 19.5296 13.7433C20.0214 14.8699 19.9202 15.4856 19.9202 18.1653C19.9202 21.7242 17.035 24.6094 13.4761 24.6094H10.7422C7.17402 24.6094 4.2981 21.7145 4.2981 18.1653C4.2981 14.873 4.2981 24.1263 4.2981 10.159C4.2981 9.29595 4.99713 8.59681 5.8603 8.59681C6.72293 8.59681 7.42251 9.29639 7.42251 10.159V8.79209C7.42251 7.62561 8.5389 6.77909 9.67062 7.10442C8.58396 3.04956 8.84837 4.03624 8.46577 2.60819C8.34031 2.13953 8.41646 1.66403 8.64103 1.27445C9.42013 -0.0712904 11.4552 0.184912 11.8611 1.6982C12.1038 2.60418 11.8635 1.70758 14.2328 10.5496H15.0666C15.1658 10.1793 17.1165 2.89949 17.2459 2.41682C17.4973 1.479 18.461 0.922957 19.3983 1.17389C20.3349 1.42467 20.8927 2.38709 20.6412 3.32631V3.32631Z" fill="#F9CFAC"/>
<path d="M11.7185 9.76847V8.79209C11.7185 7.84207 11.1941 7.01264 10.4199 6.57766L8.86255 0.971778C9.77815 -0.0398974 11.4964 0.338694 11.861 1.6982C12.1564 2.80132 11.7797 1.39528 14.0232 9.76847H11.7185Z" fill="#FFE4CC"/>
<path d="M20.6411 3.32632C20.1701 5.08439 18.9706 9.56128 18.5355 11.1852C18.0447 10.6938 17.2419 9.76847 15.663 9.76847H15.2759C15.6299 8.44738 17.017 3.27037 17.2457 2.41682C17.4971 1.47901 18.4608 0.922958 19.3982 1.17389C20.3348 1.42467 20.8926 2.38709 20.6411 3.32632V3.32632Z" fill="#FFE4CC"/>
<path d="M10.8933 13.4816C10.7426 14.138 10.2274 14.6528 9.5703 14.8022C8.78773 14.6245 8.20337 13.9244 8.20337 13.0882V7.33044C9.35545 6.55901 10.9372 7.37765 10.9372 8.79208C10.9372 10.3704 10.945 9.35414 10.8933 13.4816Z" fill="#FFE4CC"/>
<path d="M7.42241 10.159V13.674C7.42241 14.4012 6.92519 15.0141 6.25076 15.1869C5.57706 15.0136 5.0791 14.4019 5.0791 13.674V8.80575C6.11201 8.20928 7.42241 8.95192 7.42241 10.159Z" fill="#FFE4CC"/>
<path d="M19.9201 18.1653C19.9201 20.1503 19.0229 21.9254 17.6115 23.1078C16.7245 23.5681 15.7163 23.8283 14.6477 23.8283H11.9138C8.37143 23.8283 5.46973 20.9587 5.46973 17.3842V15.9846C6.2977 16.1247 7.14432 15.8118 7.68416 15.1439C7.68796 15.1383 7.68694 15.1404 7.69001 15.142C8.99328 16.0924 10.8547 15.5942 11.5081 14.0992C12.5836 14.9429 13.5622 14.8456 14.5486 14.8456C12.096 15.7278 10.3402 17.9948 10.17 20.6697C10.1566 20.8974 10.3347 21.0768 10.5489 21.0832C10.7598 21.0896 10.936 20.9265 10.9497 20.7156C11.1287 17.9241 13.2641 15.6546 16.0146 15.2879C16.0146 14.8451 15.8726 14.4306 15.6348 14.0963C15.606 14.051 15.8133 14.0645 13.6713 14.0645C12.1549 14.0645 10.9375 12.8339 10.9375 11.3307C10.9375 10.8985 11.287 10.5496 11.7186 10.5496H15.6631C16.3886 10.5496 17.0838 10.8376 17.5964 11.3502C18.5396 12.2934 19.1001 12.7538 19.5296 13.7433C20.0214 14.8698 19.9201 15.4856 19.9201 18.1653V18.1653Z" fill="#FFE4CC"/>
<path d="M16.107 6.65486C16.3637 6.7259 16.6142 6.52798 16.6142 6.23253C16.6142 5.77437 15.9566 5.69269 15.845 6.1369C15.7716 6.40213 15.9065 6.59945 16.107 6.65486V6.65486Z" fill="black"/>
<path d="M20.8038 1.79672C19.8501 0.15157 17.3641 0.466892 16.8685 2.31572L16.2505 4.62241C16.1946 4.83077 16.3183 5.04489 16.5266 5.10074C16.735 5.15649 16.9491 5.03293 17.005 4.82457L17.623 2.51792C17.9386 1.34061 19.5209 1.14108 20.1275 2.18757C20.3099 2.50396 20.3583 2.8725 20.2639 3.22516L18.1 11.3015L17.8725 11.074C17.2844 10.4859 16.5298 10.1589 15.5754 10.1589L16.1838 7.88835C16.2397 7.67999 16.116 7.46587 15.9077 7.41002C15.6994 7.35437 15.4852 7.47783 15.4293 7.68619L14.7668 10.1589H14.5324L12.2383 1.597C12.0897 1.04291 11.7342 0.57981 11.2373 0.29295C9.58219 -0.662632 7.59618 0.870625 8.08847 2.70924L9.14311 6.64498C8.03858 6.66373 7.13484 7.51982 7.04057 8.60472C5.76523 7.63386 3.90747 8.54287 3.90747 10.159V18.1653C3.90747 21.934 6.9735 25 10.7421 25H13.476C17.2446 25 20.3106 21.934 20.3106 18.1653C20.3106 15.5293 20.4189 14.8043 19.8878 13.5878C19.582 12.8835 19.2005 12.4021 18.7378 11.9394L21.0184 3.42732C21.1667 2.87323 21.0907 2.29448 20.8038 1.79672V1.79672ZM8.97893 1.47012C9.59259 0.410213 11.1716 0.63561 11.4838 1.79921L13.7237 10.159C11.6335 10.159 11.593 10.1321 11.328 10.2255V8.79209C11.328 7.89597 10.7762 7.12663 9.99466 6.80501L8.84297 2.50723C8.74851 2.15442 8.79693 1.78588 8.97893 1.47012V1.47012ZM7.81299 8.79209C7.81299 8.03837 8.4262 7.42516 9.17992 7.42516C9.93363 7.42516 10.5468 8.03837 10.5468 8.79209V13.0882C10.5468 13.8419 9.93363 14.4551 9.17992 14.4551C8.4262 14.4551 7.81299 13.8419 7.81299 13.0882C7.81299 12.5923 7.81299 9.28711 7.81299 8.79209ZM4.68857 10.159C4.68857 9.51295 5.21416 8.98736 5.86023 8.98736C6.5063 8.98736 7.03188 9.51295 7.03188 10.159V13.674C7.03188 14.3201 6.5063 14.8456 5.86023 14.8456C5.21416 14.8456 4.68857 14.3201 4.68857 13.674V10.159ZM19.1716 13.8996C19.6221 14.9315 19.5295 15.4397 19.5295 18.1653C19.5295 21.5033 16.8139 24.2189 13.476 24.2189H10.7421C7.40418 24.2189 4.68857 21.5033 4.68857 18.1653V15.2351C5.65661 15.9634 7.05546 15.6428 7.60585 14.5477C8.84639 15.8846 11.0719 15.158 11.3087 13.3717C11.882 14.0345 12.7282 14.4551 13.6713 14.4551H15.4011C15.4885 14.6072 15.5544 14.7718 15.592 14.9616C12.6907 15.5283 10.5468 18.101 10.5468 21.0945C10.5468 21.3102 10.7217 21.485 10.9374 21.485C11.1531 21.485 11.328 21.3102 11.328 21.0945C11.328 18.3647 13.3649 16.0349 16.0661 15.6751C16.2602 15.6492 16.4051 15.4837 16.4051 15.2879C16.4051 14.9674 16.3436 14.6547 16.2218 14.3574C16.158 14.2025 15.9856 13.8703 15.8662 13.7682C15.7128 13.6364 15.7318 13.674 13.6713 13.674C12.3792 13.674 11.328 12.6228 11.328 11.3307C11.328 11.1142 11.5021 10.9401 11.7185 10.9401H15.6633C16.2892 10.9401 16.8776 11.1839 17.3202 11.6265C18.2511 12.5573 18.7732 12.9817 19.1716 13.8996V13.8996Z" fill="black"/>
</g>
<g clip-path="url(#clip2)">
<path d="M57.6412 3.32631C57.1772 5.05866 55.7992 10.2014 55.3023 12.0561C55.6888 12.4426 56.1569 12.8846 56.5296 13.7433C57.0214 14.8699 56.9202 15.4856 56.9202 18.1653C56.9202 21.7242 54.035 24.6094 50.4761 24.6094H47.7422C44.174 24.6094 41.2981 21.7145 41.2981 18.1653C41.2981 14.873 41.2981 24.1263 41.2981 10.159C41.2981 9.29595 41.9971 8.59681 42.8603 8.59681C43.7229 8.59681 44.4225 9.29639 44.4225 10.159V8.79209C44.4225 7.62561 45.5389 6.77909 46.6706 7.10442C45.584 3.04956 45.8484 4.03624 45.4658 2.60819C45.3403 2.13953 45.4165 1.66403 45.641 1.27445C46.4201 -0.0712904 48.4552 0.184912 48.8611 1.6982C49.1038 2.60418 48.8635 1.70758 51.2328 10.5496H52.0666C52.1658 10.1793 54.1165 2.89949 54.2459 2.41682C54.4973 1.479 55.461 0.922957 56.3983 1.17389C57.3349 1.42467 57.8927 2.38709 57.6412 3.32631V3.32631Z" fill="#F9CFAC"/>
<path d="M48.7185 9.76847V8.79209C48.7185 7.84207 48.1941 7.01264 47.4199 6.57766L45.8625 0.971778C46.7781 -0.0398974 48.4964 0.338694 48.861 1.6982C49.1564 2.80132 48.7797 1.39528 51.0232 9.76847H48.7185Z" fill="#FFE4CC"/>
<path d="M57.6411 3.32632C57.1701 5.08439 55.9706 9.56128 55.5355 11.1852C55.0447 10.6938 54.2419 9.76847 52.663 9.76847H52.2759C52.6299 8.44738 54.017 3.27037 54.2457 2.41682C54.4971 1.47901 55.4608 0.922958 56.3982 1.17389C57.3348 1.42467 57.8926 2.38709 57.6411 3.32632V3.32632Z" fill="#FFE4CC"/>
<path d="M47.8933 13.4816C47.7426 14.138 47.2274 14.6528 46.5703 14.8022C45.7877 14.6245 45.2034 13.9244 45.2034 13.0882V7.33044C46.3554 6.55901 47.9372 7.37765 47.9372 8.79208C47.9372 10.3704 47.945 9.35414 47.8933 13.4816Z" fill="#FFE4CC"/>
<path d="M44.4224 10.159V13.674C44.4224 14.4012 43.9252 15.0141 43.2508 15.1869C42.5771 15.0136 42.0791 14.4019 42.0791 13.674V8.80575C43.112 8.20928 44.4224 8.95192 44.4224 10.159Z" fill="#FFE4CC"/>
<path d="M56.9201 18.1653C56.9201 20.1503 56.0229 21.9254 54.6115 23.1078C53.7245 23.5681 52.7163 23.8283 51.6477 23.8283H48.9138C45.3714 23.8283 42.4697 20.9587 42.4697 17.3842V15.9846C43.2977 16.1247 44.1443 15.8118 44.6842 15.1439C44.688 15.1383 44.6869 15.1404 44.69 15.142C45.9933 16.0924 47.8547 15.5942 48.5081 14.0992C49.5836 14.9429 50.5622 14.8456 51.5486 14.8456C49.096 15.7278 47.3402 17.9948 47.17 20.6697C47.1566 20.8974 47.3347 21.0768 47.5489 21.0832C47.7598 21.0896 47.936 20.9265 47.9497 20.7156C48.1287 17.9241 50.2641 15.6546 53.0146 15.2879C53.0146 14.8451 52.8726 14.4306 52.6348 14.0963C52.606 14.051 52.8133 14.0645 50.6713 14.0645C49.1549 14.0645 47.9375 12.8339 47.9375 11.3307C47.9375 10.8985 48.287 10.5496 48.7186 10.5496H52.6631C53.3886 10.5496 54.0838 10.8376 54.5964 11.3502C55.5396 12.2934 56.1001 12.7538 56.5296 13.7433C57.0214 14.8698 56.9201 15.4856 56.9201 18.1653V18.1653Z" fill="#FFE4CC"/>
<path d="M53.107 6.65486C53.3637 6.7259 53.6142 6.52798 53.6142 6.23253C53.6142 5.77437 52.9567 5.69269 52.845 6.1369C52.7716 6.40213 52.9065 6.59945 53.107 6.65486V6.65486Z" fill="black"/>
<path d="M57.8038 1.79672C56.8501 0.15157 54.3641 0.466892 53.8685 2.31572L53.2505 4.62241C53.1946 4.83077 53.3183 5.04489 53.5266 5.10074C53.735 5.15649 53.9491 5.03293 54.005 4.82457L54.623 2.51792C54.9386 1.34061 56.5209 1.14108 57.1275 2.18757C57.3099 2.50396 57.3583 2.8725 57.2639 3.22516L55.1 11.3015L54.8725 11.074C54.2844 10.4859 53.5298 10.1589 52.5754 10.1589L53.1838 7.88835C53.2397 7.67999 53.116 7.46587 52.9077 7.41002C52.6994 7.35437 52.4852 7.47783 52.4293 7.68619L51.7668 10.1589H51.5324L49.2383 1.597C49.0897 1.04291 48.7342 0.57981 48.2373 0.29295C46.5822 -0.662632 44.5962 0.870625 45.0885 2.70924L46.1431 6.64498C45.0386 6.66373 44.1348 7.51982 44.0406 8.60472C42.7652 7.63386 40.9075 8.54287 40.9075 10.159V18.1653C40.9075 21.934 43.9735 25 47.7421 25H50.476C54.2446 25 57.3106 21.934 57.3106 18.1653C57.3106 15.5293 57.4189 14.8043 56.8878 13.5878C56.582 12.8835 56.2005 12.4021 55.7378 11.9394L58.0184 3.42732C58.1667 2.87323 58.0907 2.29448 57.8038 1.79672V1.79672ZM45.9789 1.47012C46.5926 0.410213 48.1716 0.63561 48.4838 1.79921L50.7237 10.159C48.6335 10.159 48.593 10.1321 48.328 10.2255V8.79209C48.328 7.89597 47.7762 7.12663 46.9947 6.80501L45.843 2.50723C45.7485 2.15442 45.7969 1.78588 45.9789 1.47012V1.47012ZM44.813 8.79209C44.813 8.03837 45.4262 7.42516 46.1799 7.42516C46.9336 7.42516 47.5469 8.03837 47.5469 8.79209V13.0882C47.5469 13.8419 46.9336 14.4551 46.1799 14.4551C45.4262 14.4551 44.813 13.8419 44.813 13.0882C44.813 12.5923 44.813 9.28711 44.813 8.79209ZM41.6886 10.159C41.6886 9.51295 42.2142 8.98736 42.8602 8.98736C43.5063 8.98736 44.0319 9.51295 44.0319 10.159V13.674C44.0319 14.3201 43.5063 14.8456 42.8602 14.8456C42.2142 14.8456 41.6886 14.3201 41.6886 13.674V10.159ZM56.1716 13.8996C56.6221 14.9315 56.5295 15.4397 56.5295 18.1653C56.5295 21.5033 53.8139 24.2189 50.476 24.2189H47.7421C44.4042 24.2189 41.6886 21.5033 41.6886 18.1653V15.2351C42.6566 15.9634 44.0555 15.6428 44.6058 14.5477C45.8464 15.8846 48.0719 15.158 48.3087 13.3717C48.882 14.0345 49.7282 14.4551 50.6713 14.4551H52.4011C52.4886 14.6072 52.5544 14.7718 52.592 14.9616C49.6907 15.5283 47.5469 18.101 47.5469 21.0945C47.5469 21.3102 47.7217 21.485 47.9374 21.485C48.1531 21.485 48.328 21.3102 48.328 21.0945C48.328 18.3647 50.3649 16.0349 53.0661 15.6751C53.2602 15.6492 53.4051 15.4837 53.4051 15.2879C53.4051 14.9674 53.3436 14.6547 53.2218 14.3574C53.158 14.2025 52.9856 13.8703 52.8662 13.7682C52.7128 13.6364 52.7318 13.674 50.6713 13.674C49.3792 13.674 48.328 12.6228 48.328 11.3307C48.328 11.1142 48.5021 10.9401 48.7185 10.9401H52.6633C53.2892 10.9401 53.8776 11.1839 54.3202 11.6265C55.2511 12.5573 55.7732 12.9817 56.1716 13.8996V13.8996Z" fill="black"/>
</g>
<g clip-path="url(#clip3)">
<path d="M61.0606 12.2989L61.6407 11.7188V2.14855C61.6407 0.733903 63.2227 -0.0849903 64.375 0.686638C64.8423 0.997379 65.1563 1.53663 65.1563 2.14855V8.0079C65.1563 7.0372 65.9434 6.25009 66.9141 6.25009C67.8854 6.25009 68.6719 7.03715 68.6719 8.0079V9.57039C68.6719 8.59969 69.459 7.81259 70.4297 7.81259C71.401 7.81259 72.1875 8.59964 72.1875 9.57039V10.547C72.1875 9.68416 72.8872 8.98446 73.75 8.98446C74.4959 8.98446 75.1238 9.50833 75.2769 10.2149L75.3125 18.1641C75.3125 21.7237 72.4268 24.6094 68.8672 24.6094H66.1328C62.5733 24.6094 59.6876 21.7237 59.6876 18.1641V15.6133C59.6876 14.3702 60.1812 13.1783 61.0606 12.2989Z" fill="#F9CFAC"/>
<path d="M61.0606 12.2989C61.0676 12.2919 64.4622 8.89731 64.4085 8.95098C64.7128 8.64673 65.2072 8.64473 65.5114 8.94902C67.1201 10.5577 65.6494 12.2501 65.6494 12.2501C66.1345 12.4484 66.6379 12.5253 67.1148 12.4937C67.239 14.6905 69.4379 16.1553 71.5005 15.4478C72.0689 16.0386 72.8672 16.4063 73.75 16.4063V18.1641C73.75 21.1844 71.3016 23.6328 68.2813 23.6328H64.5703C63.647 23.6328 62.7691 23.4385 61.9747 23.0889C60.5757 21.9063 59.6876 20.1392 59.6876 18.1641V15.6133C59.6876 14.3702 60.1812 13.1783 61.0606 12.2989Z" fill="#FFE4CC"/>
<path d="M63.2031 15.2862C63.2031 15.482 63.3481 15.6476 63.542 15.6735C66.2441 16.0333 68.2813 18.3634 68.2813 21.0939C68.2813 21.3084 68.4546 21.4845 68.6719 21.4845C69.324 21.4845 69.4531 20.962 69.4531 20.3126C69.4531 17.5782 67.4023 15.2345 65.2017 14.4791L66.3545 13.3087C66.896 12.7638 67.2461 12.0748 67.3687 11.3282H65.7681C65.576 11.9732 65.2952 12.1572 63.9082 13.566C63.4616 14.0184 63.2031 14.6342 63.2031 15.2862V15.2862Z" fill="#F9CFAC"/>
<path d="M68.6719 9.57041V12.3048C68.6719 13.0573 69.1474 13.7158 69.8438 13.9625C70.5264 13.7213 71.0156 13.0699 71.0156 12.3048V7.9127C69.878 7.51025 68.6719 8.35425 68.6719 9.57041Z" fill="#FFE4CC"/>
<path d="M68.6719 9.57041V12.3048C68.6719 13.0573 69.1474 13.7158 69.8438 13.9625C70.5264 13.7213 71.0156 13.0699 71.0156 12.3048V7.9127C69.878 7.51025 68.6719 8.35425 68.6719 9.57041Z" fill="#FFE4CC"/>
<path d="M61.6406 2.14853V10.0616C63.7248 7.97744 63.6866 7.98345 63.9844 7.81113V0.490821C62.8467 0.0883793 61.6406 0.932373 61.6406 2.14853V2.14853Z" fill="#FFE4CC"/>
<path d="M65.1562 8.00789V9.17976C65.1562 9.9323 65.6317 10.5908 66.3281 10.8375C67.0107 10.5963 67.5 9.9449 67.5 9.17976V6.35017C66.3624 5.94773 65.1562 6.79173 65.1562 8.00789Z" fill="#FFE4CC"/>
<path d="M72.1875 10.547V13.2813C72.1875 13.9342 72.5874 14.4962 73.1641 14.7306C73.7363 14.4986 74.1406 13.9371 74.1406 13.2813V9.03379C73.1522 8.7789 72.1875 9.52646 72.1875 10.547Z" fill="#FFE4CC"/>
<path d="M61.6406 10.5469V10.6143L61.708 10.5469H61.6406Z" fill="#FFE4CC"/>
<path d="M60.7844 12.0227L61.2501 11.557V2.14854C61.2501 0.227892 63.5754 -0.711411 64.9181 0.629404C65.3236 1.03555 65.5469 1.57505 65.5469 2.14854V6.35184C66.9195 5.21664 68.9869 6.15839 69.0603 7.91629C70.2713 6.912 72.1213 7.51361 72.5113 9.03806C73.7706 8.00233 75.7031 8.88899 75.7031 10.5469V18.1641C75.7031 21.9334 72.6365 25 68.8672 25H66.1329C64.8026 25 63.5125 24.6173 62.402 23.8931C62.2213 23.7753 62.1703 23.5333 62.2881 23.3526C62.4059 23.1718 62.6479 23.1208 62.8286 23.2387C63.812 23.8799 64.9545 24.2187 66.1329 24.2187H68.8672C72.2058 24.2187 74.9219 21.5026 74.9219 18.1641V14.8427C73.8587 15.6427 72.3047 15.1654 71.8905 13.8782C70.5193 15.1521 68.2813 14.1691 68.2813 12.3048V10.8358C67.8206 11.2168 67.2095 11.4006 66.5791 11.3019C66.4682 11.8507 66.2002 12.3554 65.7979 12.7606L64.4645 14.1144C64.2277 14.3542 64.0774 14.6528 64.0163 14.9599C66.9182 15.5267 69.0625 18.0998 69.0625 21.0939C69.0625 21.3096 68.8876 21.4845 68.6719 21.4845C68.4561 21.4845 68.2812 21.3096 68.2812 21.0939C68.2812 18.3636 66.2438 16.0334 63.5421 15.6735C63.3481 15.6476 63.2031 15.4821 63.2031 15.2863C63.2031 14.9657 63.2647 14.6529 63.3863 14.3559C63.6214 13.7846 63.828 13.6473 65.2424 12.2113C66.0628 11.3851 66.0619 10.0504 65.2353 9.22537C65.0837 9.0742 64.837 9.07508 64.685 9.22713L61.3368 12.5753C60.5252 13.3869 60.0782 14.4659 60.0782 15.6135V18.1643C60.0782 19.162 60.326 20.151 60.7949 21.0244C60.897 21.2145 60.8256 21.4513 60.6355 21.5533C60.4442 21.656 60.2079 21.5828 60.1066 21.394C59.5769 20.4074 59.2969 19.2906 59.2969 18.1643V15.6135C59.2969 14.257 59.8252 12.9819 60.7844 12.0227V12.0227ZM72.5781 13.2813C72.5781 13.9275 73.1039 14.4532 73.75 14.4532C74.3961 14.4532 74.9219 13.9275 74.9219 13.2813C74.9219 12.7235 74.9219 11.1041 74.9219 10.5469C74.9219 9.90076 74.3961 9.37507 73.75 9.37507C73.1039 9.37507 72.5781 9.90076 72.5781 10.5469V13.2813ZM69.0625 12.3048C69.0625 13.0586 69.6759 13.6719 70.4297 13.6719C71.1836 13.6719 71.7969 13.0586 71.7969 12.3048C71.7969 11.7035 71.7969 10.1478 71.7969 9.57039C71.7969 8.81653 71.1836 8.2032 70.4297 8.2032C69.6759 8.2032 69.0625 8.81653 69.0625 9.57039V12.3048ZM66.6293 10.517C67.483 10.6977 68.2813 10.0448 68.2813 9.17971V8.00784C68.2813 7.64281 68.1391 7.2993 67.8813 7.0411C67.0268 6.18788 65.547 6.78568 65.547 8.00784V8.48938C65.9961 8.74934 66.5626 9.55628 66.6293 10.517V10.517ZM64.7657 8.34895C64.7657 7.37909 64.7657 2.82417 64.7657 2.14854C64.7657 1.3982 64.1595 0.781357 63.3985 0.781357C62.6446 0.781357 62.0313 1.39468 62.0313 2.14854L62.0313 10.7758L64.1325 8.67454C64.3112 8.49588 64.5337 8.38802 64.7657 8.34895Z" fill="black"/>
<path d="M61.6387 22.2218C61.6598 22.2451 61.6846 22.2719 61.7066 22.2958C61.9384 22.5472 61.7561 22.9512 61.4195 22.9512C61.2336 22.9512 61.1447 22.8402 61.0595 22.746C60.9147 22.586 60.927 22.3391 61.087 22.1943C61.247 22.0494 61.494 22.0618 61.6387 22.2218Z" fill="black"/>
</g>
<defs>
<clipPath id="clip0">
<rect width="25" height="25" fill="white" transform="translate(19)"/>
</clipPath>
<clipPath id="clip1">
<rect width="25" height="25" fill="white"/>
</clipPath>
<clipPath id="clip2">
<rect width="25" height="25" fill="white" transform="translate(37)"/>
</clipPath>
<clipPath id="clip3">
<rect width="25" height="25" fill="white" transform="matrix(-1 0 0 1 80 0)"/>
</clipPath>
</defs>
</svg>
